# Blender 4.1.1
# www.blender.org
mtllib plimbo.mtl
o Cube
v -0.424537 2.595474 -0.673068
v -0.150377 2.007193 -1.138519
v -0.644972 1.891979 0.586765
v -0.710390 2.022862 -0.962958
v -0.375852 2.643467 -1.201619
v -0.101692 1.708491 -1.498799
v -0.661705 1.732381 -1.601140
v 0.064347 0.958305 -0.877871
v -0.769137 0.973974 -0.815795
v -0.304360 1.346029 -3.133538
v -0.118416 0.993671 -1.346001
v -0.238772 2.327867 -1.398227
v -0.518779 2.348596 -1.516277
v -0.606918 1.000659 -1.385872
v -0.748797 0.017872 -1.135699
v -0.684254 0.322598 -1.113367
v -0.824267 0.018776 -1.150163
v 0.024367 0.052087 -1.450098
v -0.631336 0.987359 -0.972482
v -1.918829 -0.015019 -0.053537
v -0.707961 0.988263 -0.966691
v -0.081642 0.022089 0.298553
v -0.026413 0.038653 -1.398619
v -0.760033 0.323502 -1.122419
v -0.034269 1.281675 -1.001320
v 0.655922 0.028986 -0.001744
v -0.108672 1.282552 -0.995698
v 1.613000 0.059195 -1.368483
v -0.209537 2.422832 -1.267260
v -0.224114 1.726584 -0.510616
v -0.537120 2.745634 -0.330776
v -0.831014 1.774556 -0.719412
v -0.492996 2.566816 -1.195924
v -0.484905 2.537899 -0.261841
vn -0.0639 -0.9414 -0.3313
vn -0.9434 -0.0816 -0.3215
vn 0.1319 0.2171 -0.9672
vn 0.9700 0.0330 -0.2410
vn -0.0881 -0.9818 0.1685
vn -0.8654 -0.3057 0.3971
vn 0.7870 -0.3478 0.5096
vn -0.7104 0.4658 -0.5276
vn 0.5958 0.5081 -0.6220
vn -0.0448 0.0269 0.9986
vn -0.6496 0.7364 0.1890
vn -0.7462 -0.4058 0.5278
vn 0.4222 -0.5040 0.7535
vn 0.6402 0.7421 0.1987
vn 0.1150 -0.7605 -0.6391
vn 0.0829 0.1411 -0.9865
vn 0.1011 -0.8345 -0.5417
vn -0.2490 -0.7925 -0.5567
vn 0.0234 0.2159 -0.9761
vn 0.0205 -0.9998 -0.0082
vn -0.3100 -0.6671 -0.6774
vn 0.0952 0.1253 -0.9875
vn -0.4218 0.2736 -0.8644
vn 0.0129 -0.9997 -0.0216
vn -0.9383 -0.2452 -0.2437
vn 0.9151 -0.4027 -0.0204
vt 0.954550 0.960573
vt 0.954550 0.938937
vt 0.960463 0.942800
vt 0.927981 0.910167
vt 0.917084 0.925172
vt 0.912438 0.918297
vt 0.940789 0.927259
vt 0.928880 0.910167
vt 0.943918 0.918399
vt 0.947854 0.923429
vt 0.945836 0.927639
vt 0.909777 0.928541
vt 0.908451 0.923322
vt 0.950991 0.943143
vt 0.952948 0.938937
vt 0.954550 0.943980
vt 0.947854 0.950091
vt 0.954550 0.951244
vt 0.953579 0.962942
vt 0.915966 0.951151
vt 0.918470 0.964144
vt 0.908451 0.964144
vt 0.908966 0.951419
vt 0.940173 0.932889
vt 0.915667 0.933463
vt 0.957562 0.938937
vt 0.947854 0.936289
vt 0.951099 0.931172
vt 0.956962 0.931831
vt 0.957562 0.910167
vt 0.928343 0.930396
vt 0.923915 0.935864
vt 0.908451 0.951151
vt 0.932113 0.936050
vt 0.928343 0.931817
vt 0.947854 0.951391
vt 0.251524 0.475802
vt 0.321799 0.468917
vt 0.497000 0.993230
vt 0.000743 0.999003
vt 0.250682 0.466815
vt 0.293063 0.466062
vt 0.483312 0.983586
vt 0.001324 0.977896
vt 0.308796 0.155881
vt 0.302562 0.464000
vt 0.259721 0.469343
vt 0.266382 0.161839
vt 0.312327 0.012947
vt 0.269539 0.018555
vt 0.314709 0.012738
vt 0.309502 0.461146
vt 0.261658 0.468754
vt 0.264119 0.009786
vt 0.464772 -0.175082
vt 1.250247 0.308646
vt 0.464773 0.726587
vt 1.247970 0.311159
vt 0.464332 0.724755
vt 0.469364 -0.161113
s 1
usemtl Material
f 3/1/3 2/2/2 4/3/4
f 3/4/3 4/5/4 1/6/1
f 2/7/2 3/8/3 1/9/1
f 2/7/2 1/9/1 5/10/5 12/11/12
f 4/5/4 13/12/13 5/13/5 1/6/1
f 12/14/12 5/15/5 13/16/13
f 6/17/6 12/14/12 13/16/13 7/18/7
f 6/17/6 7/18/7 10/19/10
f 2/20/2 8/21/8 9/22/9 4/23/4
f 12/11/12 6/24/6 2/7/2
f 13/12/13 4/5/4 7/25/7
f 9/26/9 8/27/8 11/28/11 14/29/14
f 10/30/10 14/29/14 11/28/11
f 7/25/7 4/5/4 9/31/9 14/32/14
f 14/32/14 10/33/10 7/25/7
f 6/24/6 11/34/11 8/35/8 2/7/2
f 11/34/11 6/24/6 10/36/10
f 23/37/21 18/38/18 28/39/24 26/40/24
f 17/41/17 15/42/15 22/43/20 20/44/20
f 24/45/22 21/46/19 19/47/19 16/48/16
f 17/49/17 24/45/22 16/48/16 15/50/15
f 23/51/21 27/52/23 25/53/23 18/54/18
f 30/55/25 31/56/25 29/57/25
f 33/58/26 34/59/26 32/60/26
